<svg width="21" height="20" viewBox="0 0 21 20" fill="none" xmlns="http://www.w3.org/2000/svg">
<g clip-path="url(#clip0_581_2274)">
<path d="M7.46721 0.65784C5.4689 1.35107 3.74556 2.66685 2.55032 4.41191C1.35508 6.15696 0.750946 8.23931 0.826651 10.3531C0.902355 12.4669 1.65391 14.5007 2.97092 16.1558C4.28794 17.8108 6.10099 19 8.14377 19.5485C9.7999 19.9758 11.535 19.9946 13.2 19.6032C14.7083 19.2644 16.1028 18.5397 17.2469 17.5C18.4376 16.3849 19.302 14.9664 19.7469 13.3969C20.2304 11.6901 20.3164 9.89525 19.9985 8.15003H10.6985V12.0078H16.0844C15.9768 12.6231 15.7461 13.2104 15.4062 13.7345C15.0663 14.2585 14.6242 14.7086 14.1063 15.0578C13.4487 15.4931 12.7073 15.7858 11.9297 15.9172C11.1499 16.0622 10.3501 16.0622 9.57033 15.9172C8.77995 15.754 8.03227 15.4278 7.37502 14.9594C6.319 14.2119 5.52608 13.1499 5.1094 11.925C4.68579 10.6772 4.68579 9.32443 5.1094 8.07659C5.406 7.20193 5.89632 6.40555 6.54377 5.7469C7.2847 4.97932 8.22273 4.43065 9.25495 4.16108C10.2872 3.89152 11.3737 3.91148 12.3953 4.21878C13.1935 4.46366 13.9233 4.89171 14.5266 5.46878C15.1339 4.86461 15.7401 4.25888 16.3453 3.65159C16.6578 3.32503 16.9985 3.01409 17.3063 2.67971C16.3852 1.82271 15.3042 1.15582 14.125 0.717215C11.9777 -0.0624883 9.62811 -0.0834421 7.46721 0.65784Z" fill="white"/>
<path d="M7.46709 0.657806C9.62781 -0.08398 11.9774 -0.0635778 14.1249 0.715618C15.3043 1.1572 16.3848 1.82731 17.3046 2.68749C16.9921 3.02187 16.6624 3.33437 16.3437 3.65937C15.7374 4.26458 15.1317 4.8677 14.5265 5.46874C13.9232 4.89168 13.1933 4.46362 12.3952 4.21874C11.3739 3.91037 10.2874 3.88926 9.25493 4.15772C8.22243 4.42618 7.28383 4.97384 6.54209 5.74062C5.89464 6.39927 5.40432 7.19564 5.10771 8.07031L1.86865 5.56249C3.02804 3.26337 5.03545 1.50472 7.46709 0.657806Z" fill="#E33629"/>
<path d="M1.00918 8.04688C1.18314 7.18402 1.47218 6.34843 1.86855 5.5625L5.10761 8.07656C4.684 9.3244 4.684 10.6772 5.10761 11.925C4.02845 12.7583 2.94876 13.5958 1.86855 14.4375C0.876598 12.463 0.57407 10.2133 1.00918 8.04688Z" fill="#F8BD00"/>
<path d="M10.6984 8.14844H19.9984C20.3164 9.89366 20.2303 11.6885 19.7469 13.3953C19.3019 14.9648 18.4376 16.3834 17.2469 17.4984C16.2016 16.6828 15.1516 15.8734 14.1063 15.0578C14.6245 14.7082 15.0668 14.2576 15.4067 13.733C15.7467 13.2084 15.9771 12.6205 16.0844 12.0047H10.6984C10.6969 10.7203 10.6984 9.43437 10.6984 8.14844Z" fill="#587DBD"/>
<path d="M1.86719 14.4375C2.9474 13.6042 4.02708 12.7667 5.10625 11.925C5.52376 13.1503 6.31782 14.2123 7.375 14.9594C8.0343 15.4256 8.78359 15.7491 9.575 15.9094C10.3548 16.0544 11.1546 16.0544 11.9344 15.9094C12.7119 15.7779 13.4533 15.4852 14.1109 15.05C15.1563 15.8656 16.2062 16.675 17.2516 17.4906C16.1076 18.5308 14.7132 19.2561 13.2047 19.5953C11.5397 19.9867 9.80457 19.9679 8.14844 19.5406C6.8386 19.1909 5.61512 18.5744 4.55469 17.7297C3.43239 16.8385 2.51568 15.7155 1.86719 14.4375Z" fill="#319F43"/>
</g>
<defs>
<clipPath id="clip0_581_2274">
<rect width="20" height="20" fill="white" transform="translate(0.5)"/>
</clipPath>
</defs>
</svg>
