<svg width="104" height="36" viewBox="0 0 104 36" fill="none" xmlns="http://www.w3.org/2000/svg">
<path d="M43.4868 11.0888C43.4756 9.94123 43.662 8.80026 44.0379 7.71592C44.3615 6.75617 44.8751 5.87146 45.548 5.11457C46.188 4.40949 46.9742 3.85272 47.8518 3.48322C48.7635 3.10549 49.7418 2.91434 50.7287 2.92107C51.4112 2.92395 52.0913 3.00157 52.7568 3.15255C53.5136 3.31784 54.252 3.55784 54.9614 3.86902C55.1747 3.95478 55.3558 4.10509 55.4794 4.2989C55.5862 4.47113 55.6434 4.66945 55.6448 4.87208C55.6456 5.00716 55.6232 5.14138 55.5786 5.26889C55.5315 5.39853 55.4605 5.51818 55.3692 5.62161C55.2801 5.72315 55.1713 5.80563 55.0495 5.86411C54.915 5.92634 54.7678 5.95652 54.6197 5.95229C54.4723 5.94812 54.3269 5.91828 54.1898 5.86411C53.2031 5.486 52.1596 5.2773 51.1034 5.24685C50.4222 5.23266 49.7457 5.3642 49.1194 5.63264C48.5558 5.87763 48.0603 6.25591 47.6754 6.7349C47.2652 7.27347 46.9655 7.88782 46.7936 8.54261C46.5729 9.35056 46.4654 10.1852 46.4739 11.0227C46.4668 11.7986 46.5557 12.5724 46.7385 13.3264C46.8891 13.9713 47.1623 14.5813 47.5431 15.1231C47.8963 15.6143 48.3609 16.0148 48.8989 16.2915C49.4917 16.5822 50.1458 16.7259 50.8058 16.7104C51.3633 16.7055 51.9182 16.6352 52.4592 16.501C53.118 16.3369 53.7601 16.1118 54.3772 15.8286C54.4653 15.7886 54.5578 15.759 54.6527 15.7404H54.9063C55.0471 15.7384 55.1866 15.7685 55.3141 15.8286C55.4329 15.8867 55.5381 15.9694 55.6227 16.0711C55.7089 16.1721 55.7761 16.2879 55.8211 16.4128C55.8657 16.5403 55.8881 16.6745 55.8873 16.8096C55.8825 17.044 55.8139 17.2726 55.6889 17.4709C55.5313 17.7123 55.3047 17.9005 55.0385 18.0111C53.6665 18.6948 52.1618 19.071 50.6295 19.1133C49.6328 19.1246 48.645 18.9255 47.7305 18.5291C46.8862 18.1465 46.1342 17.5863 45.526 16.8867C44.8544 16.1437 44.3373 15.2744 44.0049 14.3295C43.6514 13.286 43.4763 12.1905 43.4868 11.0888Z" fill="#1D1F21"/>
<path d="M58.161 11.023C58.1476 9.90205 58.3113 8.78604 58.646 7.71618C58.942 6.77399 59.4299 5.90329 60.0789 5.15893C60.7224 4.43768 61.5215 3.87227 62.4157 3.50553C64.4822 2.72114 66.7644 2.72114 68.8309 3.50553C69.725 3.87261 70.524 4.43796 71.1677 5.15893C71.8104 5.90415 72.2909 6.77505 72.5786 7.71618C72.908 8.787 73.0679 9.90274 73.0526 11.023C73.0686 12.1432 72.9087 13.2591 72.5786 14.3298C72.2874 15.2717 71.8031 16.1426 71.1567 16.887C70.513 17.608 69.714 18.1733 68.8199 18.5404C66.7534 19.3248 64.4712 19.3248 62.4047 18.5404C61.5104 18.1737 60.7113 17.6083 60.0679 16.887C59.4231 16.1415 58.939 15.2709 58.646 14.3298C58.3105 13.2601 58.1468 12.1439 58.161 11.023ZM61.2143 11.023C61.2074 11.8273 61.2925 12.6298 61.4678 13.4149C61.6124 14.0872 61.8816 14.7265 62.2614 15.2998C62.61 15.8162 63.0791 16.2399 63.6282 16.5343C64.2481 16.8292 64.9259 16.9822 65.6123 16.9822C66.2987 16.9822 66.9765 16.8292 67.5964 16.5343C68.1455 16.2399 68.6146 15.8162 68.9632 15.2998C69.3407 14.7253 69.6097 14.0864 69.7568 13.4149C69.9381 12.6306 70.0269 11.8279 70.0214 11.023C70.0278 10.2223 69.9427 9.42347 69.7678 8.64208C69.6225 7.96656 69.3535 7.32377 68.9742 6.74619C68.6218 6.22902 68.149 5.80532 67.5964 5.51165C66.9755 5.21352 66.2955 5.05874 65.6068 5.05874C64.918 5.05874 64.2381 5.21352 63.6172 5.51165C63.0663 5.80842 62.5969 6.23618 62.2504 6.75721C61.8761 7.33618 61.6109 7.97871 61.4678 8.6531C61.2937 9.4309 61.2087 10.226 61.2143 11.023Z" fill="#1D1F21"/>
<path d="M77.4174 18.7386C77.2283 18.738 77.0411 18.7006 76.8663 18.6284C76.6934 18.5616 76.5359 18.4603 76.4033 18.3307C76.2732 18.2006 76.1685 18.0474 76.0947 17.8788C76.0198 17.7087 75.9822 17.5245 75.9845 17.3387V4.6737C75.982 4.48428 76.0196 4.29647 76.0947 4.12257C76.1669 3.95309 76.2717 3.79951 76.4033 3.67064C76.538 3.54372 76.6949 3.44282 76.8663 3.37303C77.0407 3.29941 77.2282 3.26191 77.4174 3.26281H81.2533C82.4858 3.23803 83.7142 3.41298 84.8908 3.78087C85.8539 4.08758 86.7356 4.60752 87.4701 5.30199C88.1663 5.97474 88.6949 6.80158 89.0132 7.71595C89.3658 8.78215 89.5372 9.89989 89.5203 11.0227C89.5433 12.1496 89.3565 13.271 88.9691 14.3295C88.6262 15.2417 88.0795 16.0635 87.3709 16.7325C86.6329 17.4064 85.7562 17.9105 84.8026 18.2095C83.69 18.5569 82.529 18.7243 81.3635 18.7055L77.4174 18.7386ZM78.8504 16.7655H81.2864C82.1016 16.7857 82.9132 16.651 83.6783 16.3687C84.2976 16.1401 84.8506 15.7614 85.2876 15.2665C85.7223 14.7388 86.0347 14.1215 86.2025 13.4587C86.4026 12.6662 86.499 11.8511 86.4891 11.0338C86.5079 10.1564 86.3851 9.28169 86.1253 8.44344C85.9035 7.76656 85.526 7.15117 85.023 6.64675C84.5365 6.14307 83.9351 5.76485 83.2704 5.54449C82.496 5.30569 81.6888 5.19037 80.8785 5.20279H78.8504V16.7655Z" fill="#1D1F21"/>
<path d="M93.9968 18.7386C93.8147 18.7393 93.6344 18.7018 93.4677 18.6284C93.3005 18.557 93.1475 18.4562 93.0158 18.3308C92.887 18.2038 92.7824 18.0544 92.7072 17.8899C92.628 17.7247 92.5866 17.544 92.5859 17.3608V4.65171C92.5876 4.2892 92.7299 3.94147 92.9828 3.68172C93.1091 3.55212 93.2586 3.44742 93.4237 3.37309C93.5936 3.29785 93.7779 3.26025 93.9638 3.26286H101.812C101.971 3.25853 102.129 3.28862 102.275 3.35104C102.401 3.40824 102.513 3.4908 102.606 3.59354C102.694 3.69298 102.761 3.80919 102.804 3.93524C102.848 4.06285 102.87 4.19701 102.87 4.33205C102.869 4.46337 102.847 4.59363 102.804 4.71785C102.762 4.84403 102.694 4.96028 102.606 5.05955C102.513 5.16229 102.401 5.24485 102.275 5.30205C102.129 5.36447 101.971 5.39455 101.812 5.39023H95.3967V9.79928H101.437C101.6 9.79334 101.762 9.82345 101.911 9.88746C102.037 9.94171 102.15 10.0217 102.243 10.1223C102.336 10.223 102.407 10.342 102.451 10.4717C102.495 10.5993 102.518 10.7334 102.517 10.8685C102.518 11 102.496 11.1306 102.451 11.2543C102.403 11.38 102.332 11.4958 102.242 11.596C102.15 11.699 102.037 11.7815 101.911 11.8385C101.765 11.9009 101.607 11.931 101.448 11.9266H95.3967V16.6554H102.01C102.173 16.6494 102.335 16.6795 102.484 16.7435C102.61 16.8007 102.723 16.8833 102.815 16.986C102.903 17.0855 102.971 17.2017 103.013 17.3277C103.058 17.4554 103.08 17.5895 103.079 17.7246C103.078 17.8559 103.056 17.9861 103.013 18.1103C102.971 18.2365 102.904 18.3528 102.815 18.452C102.723 18.5548 102.61 18.6373 102.484 18.6945C102.335 18.7586 102.173 18.7887 102.01 18.7827L93.9968 18.7386Z" fill="#1D1F21"/>
<path d="M44.9355 32.8475C44.8628 32.863 44.7877 32.863 44.715 32.8475C44.65 32.8218 44.5903 32.7844 44.5387 32.7373C44.4879 32.6906 44.4467 32.6344 44.4174 32.5719C44.4029 32.5029 44.4029 32.4315 44.4174 32.3625V24.5364C44.4025 24.4674 44.4025 24.396 44.4174 24.327C44.4469 24.2646 44.4881 24.2085 44.5387 24.1616C44.5905 24.1148 44.6502 24.0775 44.715 24.0514C44.7878 24.0366 44.8628 24.0366 44.9355 24.0514H47.0518C47.746 24.0387 48.4379 24.1354 49.102 24.338C49.6586 24.5061 50.1707 24.796 50.6011 25.1868C50.9957 25.5368 51.3081 25.9696 51.516 26.4544C51.7406 27.0836 51.8489 27.7484 51.8357 28.4164C51.8477 29.0699 51.7394 29.72 51.516 30.3343C51.3199 30.8632 51.0028 31.3388 50.5901 31.7232C50.1608 32.1071 49.653 32.393 49.102 32.5609C48.4523 32.7601 47.7755 32.8568 47.0959 32.8475H44.9355ZM45.4866 31.9767H47.2062C47.7389 31.9875 48.2692 31.9016 48.7714 31.7232C49.1924 31.5792 49.5711 31.333 49.8736 31.0067C50.1546 30.6885 50.3616 30.3121 50.4799 29.9044C50.6157 29.424 50.6825 28.9267 50.6783 28.4274C50.6894 27.8838 50.6036 27.3426 50.4248 26.8291C50.2697 26.4082 50.0165 26.0304 49.6862 25.7269C49.358 25.4107 48.9623 25.1733 48.5289 25.0324C48.0166 24.8854 47.4855 24.8148 46.9526 24.823H45.4866V31.9767Z" fill="#1D1F21"/>
<path d="M53.8836 24.4812C53.8669 24.405 53.8669 24.326 53.8836 24.2497C53.9144 24.1851 53.9596 24.1286 54.0159 24.0844C54.0683 24.0411 54.1281 24.0075 54.1923 23.9852C54.2616 23.9737 54.3324 23.9737 54.4017 23.9852C54.5379 23.9859 54.67 24.0325 54.7765 24.1175C54.8354 24.1648 54.8821 24.2255 54.9128 24.2945C54.9434 24.3635 54.9572 24.4389 54.9528 24.5143V32.3624C54.9696 32.4387 54.9696 32.5176 54.9528 32.5939C54.9225 32.6587 54.8771 32.7154 54.8206 32.7592C54.7687 32.8033 54.7088 32.837 54.6442 32.8584H54.4348C54.2985 32.8577 54.1665 32.8111 54.06 32.7261C54.0004 32.6795 53.9532 32.6189 53.9224 32.5497C53.8917 32.4805 53.8784 32.4049 53.8836 32.3293V24.4812Z" fill="#1D1F21"/>
<path d="M58.7912 26.1457C58.7839 26.3955 58.8616 26.6404 59.0117 26.8402C59.1665 27.0433 59.3617 27.2121 59.5849 27.3362C59.8436 27.4821 60.117 27.6004 60.4005 27.6889L61.3375 27.9865C61.6902 28.0967 62.0282 28.218 62.3516 28.3503C62.6563 28.4704 62.9421 28.6338 63.2003 28.8353C63.4566 29.0415 63.6595 29.3064 63.7919 29.6077C63.9243 29.9089 63.9822 30.2375 63.9609 30.5658C63.9612 30.9091 63.8739 31.2467 63.7073 31.5468C63.5352 31.8582 63.2938 32.126 63.0019 32.3294C62.6673 32.5572 62.2936 32.7216 61.8996 32.8144C61.4679 32.9275 61.0232 32.9831 60.5769 32.9798C60.2515 32.9823 59.9266 32.9528 59.6069 32.8916C59.3202 32.8339 59.0397 32.749 58.7692 32.6381C58.5224 32.5363 58.2862 32.4108 58.0638 32.2633C57.861 32.1287 57.6726 31.9735 57.5016 31.8003C57.47 31.7659 57.4473 31.7243 57.4355 31.6791C57.4283 31.6353 57.4283 31.5906 57.4355 31.5468C57.4252 31.4885 57.4252 31.4288 57.4355 31.3705C57.4569 31.3114 57.4865 31.2558 57.5236 31.2051C57.5576 31.1587 57.5985 31.1179 57.6449 31.0839C57.6916 31.0694 57.7415 31.0694 57.7882 31.0839C57.8717 31.0839 57.9529 31.111 58.0197 31.161L58.2511 31.3264L58.692 31.613C58.8607 31.7127 59.0377 31.7975 59.2211 31.8665C59.4285 31.9442 59.6425 32.0032 59.8604 32.0428C60.1113 32.0886 60.366 32.1107 60.621 32.109C60.9064 32.1127 61.1912 32.0831 61.4697 32.0208C61.7114 31.9679 61.9424 31.8748 62.1531 31.7452C62.3371 31.6274 62.4917 31.469 62.6051 31.2823C62.7126 31.1023 62.7697 30.8967 62.7704 30.6871C62.7784 30.4201 62.7012 30.1576 62.55 29.9375C62.3973 29.7295 62.2018 29.5567 61.9768 29.4305C61.7184 29.2839 61.4449 29.1657 61.1611 29.0778L60.2352 28.7801C59.8898 28.6699 59.5555 28.545 59.2321 28.4054C58.9246 28.2794 58.6354 28.1125 58.3724 27.9094C58.1276 27.7177 57.9249 27.4775 57.7772 27.2039C57.6261 26.9151 57.5503 26.5929 57.5567 26.267C57.5551 25.9306 57.6426 25.5997 57.8102 25.308C57.981 25.0116 58.2142 24.7558 58.4936 24.5585C58.8091 24.3158 59.1684 24.1361 59.5518 24.0294C59.9323 23.9244 60.3255 23.8725 60.7202 23.8751C61.289 23.866 61.8542 23.967 62.3846 24.1727C62.8797 24.3741 63.3239 24.6828 63.6853 25.0765C63.7173 25.1107 63.74 25.1524 63.7514 25.1978C63.757 25.2491 63.757 25.3008 63.7514 25.3521C63.7581 25.4033 63.7581 25.4552 63.7514 25.5064C63.7359 25.559 63.7096 25.6078 63.6743 25.6497C63.6383 25.6952 63.5932 25.7328 63.542 25.7599C63.4769 25.7763 63.4087 25.7763 63.3436 25.7599C63.1842 25.7422 63.0379 25.6632 62.9358 25.5395L62.5169 25.2529C62.3633 25.1569 62.2009 25.0757 62.0319 25.0104C61.8494 24.9398 61.6614 24.8845 61.4697 24.8451C61.2557 24.8012 61.0379 24.779 60.8194 24.7789C60.5785 24.7785 60.3382 24.8043 60.1029 24.8561C59.8709 24.9065 59.6479 24.992 59.4416 25.1096C59.2485 25.2178 59.0826 25.3686 58.9566 25.5505C58.8395 25.7263 58.7816 25.9348 58.7912 26.1457Z" fill="#1D1F21"/>
<path d="M66.549 24.8564C66.4849 24.8604 66.4207 24.8495 66.3614 24.8246C66.3022 24.7998 66.2494 24.7616 66.2073 24.7132C66.1327 24.6255 66.0918 24.5141 66.0918 24.399C66.0918 24.2839 66.1327 24.1726 66.2073 24.0849C66.2494 24.0364 66.3022 23.9982 66.3614 23.9734C66.4207 23.9485 66.4849 23.9376 66.549 23.9416H72.5122C72.5781 23.9368 72.6442 23.9472 72.7053 23.972C72.7665 23.9969 72.8211 24.0355 72.865 24.0849C72.9417 24.1715 72.984 24.2833 72.984 24.399C72.984 24.5147 72.9417 24.6265 72.865 24.7132C72.8211 24.7625 72.7665 24.8011 72.7053 24.826C72.6442 24.8508 72.5781 24.8613 72.5122 24.8564H70.0983V32.3077C70.115 32.384 70.115 32.463 70.0983 32.5392C70.0679 32.604 70.0226 32.6607 69.966 32.7046C69.9101 32.7488 69.8466 32.7824 69.7786 32.8038C69.6809 32.8386 69.5759 32.8478 69.4736 32.8304C69.3713 32.813 69.2752 32.7697 69.1944 32.7046C69.1355 32.6573 69.0888 32.5966 69.0581 32.5275C69.0274 32.4585 69.0137 32.3832 69.0181 32.3077V24.8564H66.549Z" fill="#1D1F21"/>
<path d="M74.3374 24.4815C74.3224 24.4125 74.3224 24.3411 74.3374 24.2721C74.3668 24.2097 74.408 24.1536 74.4586 24.1067C74.5106 24.0601 74.5703 24.0228 74.635 23.9965C74.7077 23.9816 74.7827 23.9816 74.8554 23.9965H77.5229C77.8924 23.9993 78.2611 24.0324 78.6252 24.0957C78.9812 24.1531 79.3244 24.2725 79.6392 24.4484C79.9381 24.6174 80.1886 24.8603 80.3667 25.1539C80.5533 25.4909 80.6483 25.8709 80.6423 26.2561C80.6661 26.4884 80.6433 26.7232 80.5752 26.9465C80.507 27.1699 80.3949 27.3774 80.2455 27.5568C79.8798 27.9238 79.4105 28.17 78.9007 28.2622C79.1586 28.2952 79.4086 28.3736 79.6392 28.4937C79.8231 28.5967 79.9814 28.7399 80.1022 28.9126C80.2249 29.0898 80.3145 29.2877 80.3667 29.4968C80.4256 29.7363 80.4698 29.9793 80.499 30.2243C80.499 30.5439 80.5651 30.8415 80.5872 31.1061C80.6092 31.3706 80.5872 31.5911 80.6533 31.7785V32.3516C80.6599 32.4278 80.6483 32.5045 80.6196 32.5754C80.5908 32.6463 80.5457 32.7094 80.488 32.7595C80.3776 32.8541 80.2365 32.9051 80.0912 32.9028C79.9566 32.9028 79.8254 32.8604 79.7164 32.7815C79.6563 32.7365 79.6072 32.6783 79.5728 32.6115C79.5384 32.5446 79.5197 32.4709 79.518 32.3957C79.4666 31.8887 79.4261 31.4441 79.3967 31.062C79.3967 30.6762 79.3306 30.3565 79.2865 30.092C79.2534 29.8691 79.1942 29.6508 79.1102 29.4417C79.0471 29.2797 78.9402 29.1385 78.8015 29.0338C78.6526 28.9053 78.4749 28.8145 78.2835 28.7693C78.0246 28.7287 77.7628 28.7103 77.5008 28.7142H75.4506V32.3186C75.4674 32.3948 75.4674 32.4738 75.4506 32.55C75.4199 32.6146 75.3746 32.6712 75.3184 32.7154C75.2665 32.7595 75.2066 32.7932 75.142 32.8146H74.9436C74.8074 32.8139 74.6753 32.7673 74.5688 32.6823C74.5092 32.6356 74.462 32.5751 74.4312 32.5059C74.4005 32.4367 74.3872 32.361 74.3925 32.2855L74.3374 24.4815ZM77.082 27.8434H77.6552C77.8475 27.8342 78.039 27.8121 78.2283 27.7772C78.406 27.7443 78.5797 27.6926 78.7464 27.6229C78.9043 27.5611 79.0499 27.4715 79.1763 27.3584C79.3011 27.2412 79.3989 27.0983 79.4629 26.9395C79.5403 26.747 79.5778 26.5407 79.5731 26.3333C79.5792 26.1312 79.5493 25.9297 79.4849 25.7381C79.4284 25.5833 79.3423 25.441 79.2314 25.3192C79.1296 25.207 79.0058 25.1169 78.8677 25.0547C78.7261 24.9915 78.5783 24.9435 78.4267 24.9114C78.2706 24.8779 78.1122 24.8558 77.9528 24.8452H75.4506V27.8765L77.082 27.8434Z" fill="#1D1F21"/>
<path d="M83.2469 24.4812C83.2302 24.405 83.2302 24.326 83.2469 24.2497C83.2776 24.1851 83.3229 24.1286 83.3792 24.0844C83.4316 24.0411 83.4913 24.0075 83.5556 23.9852C83.6249 23.9737 83.6957 23.9737 83.765 23.9852C83.9012 23.9859 84.0332 24.0325 84.1398 24.1175C84.1986 24.1648 84.2454 24.2255 84.2761 24.2945C84.3067 24.3635 84.3205 24.4389 84.3161 24.5143V32.3624C84.3328 32.4387 84.3328 32.5176 84.3161 32.5939C84.2857 32.6587 84.2404 32.7154 84.1838 32.7592C84.132 32.8033 84.0721 32.837 84.0075 32.8584H83.7981C83.6618 32.8577 83.5298 32.8111 83.4233 32.7261C83.3637 32.6795 83.3164 32.6189 83.2857 32.5497C83.2549 32.4805 83.2416 32.4049 83.2469 32.3293V24.4812Z" fill="#1D1F21"/>
<path d="M87.8653 28.4494C87.8634 27.864 87.945 27.2812 88.1078 26.7189C88.259 26.1824 88.5136 25.6806 88.8573 25.2418C89.1989 24.819 89.6324 24.4797 90.1249 24.2498C90.685 23.995 91.2955 23.8707 91.9106 23.886C92.315 23.8817 92.7183 23.9262 93.1121 24.0183C93.4714 24.1027 93.8221 24.2208 94.1592 24.371C94.2476 24.409 94.3212 24.4748 94.3687 24.5584C94.4112 24.6362 94.4339 24.7233 94.4348 24.8119C94.4341 24.9243 94.3952 25.0332 94.3246 25.1206C94.2922 25.1661 94.2491 25.2029 94.1991 25.2279C94.1491 25.2529 94.0938 25.2652 94.038 25.2639H93.8947C93.5712 25.1451 93.2397 25.0493 92.9026 24.9773C92.6061 24.909 92.3031 24.872 91.9988 24.867C91.6619 24.8636 91.3267 24.9157 91.0068 25.0214C90.7321 25.1136 90.475 25.2515 90.2462 25.4292C90.0304 25.5996 89.8442 25.8045 89.6951 26.0354C89.5407 26.2734 89.415 26.5287 89.3203 26.796C89.2232 27.0677 89.1531 27.3483 89.1109 27.6337C89.069 27.9073 89.0469 28.1836 89.0447 28.4604C89.0472 28.7336 89.0693 29.0061 89.1109 29.2761C89.1531 29.5615 89.2232 29.8421 89.3203 30.1138C89.4148 30.3812 89.5406 30.6365 89.6951 30.8744C90.0037 31.3523 90.4666 31.7101 91.0068 31.8885C91.3266 31.9945 91.6619 32.0466 91.9988 32.0428H92.4617C92.6365 32.0168 92.8096 31.98 92.9798 31.9326C93.1631 31.8842 93.3434 31.8253 93.5199 31.7562C93.7027 31.6857 93.8796 31.601 94.049 31.5027H94.1592H94.2695C94.3198 31.5022 94.3695 31.5128 94.4153 31.5337C94.461 31.5547 94.5015 31.5855 94.534 31.6239C94.6057 31.7021 94.6451 31.8045 94.6442 31.9105C94.6432 32.0367 94.5962 32.1582 94.512 32.2522C94.4109 32.3665 94.2917 32.4633 94.1592 32.5388C93.9979 32.6319 93.8282 32.7094 93.6522 32.7703C93.2673 32.9097 92.868 33.0058 92.4617 33.0569C92.2782 33.068 92.0942 33.068 91.9106 33.0569C91.2884 33.0725 90.6706 32.9482 90.1029 32.6931C89.61 32.4639 89.1763 32.1245 88.8353 31.7011C88.4919 31.2662 88.2372 30.7681 88.0858 30.2351C87.924 29.6541 87.8497 29.0523 87.8653 28.4494Z" fill="#1D1F21"/>
<path d="M96.463 24.8564C96.3989 24.8604 96.3347 24.8495 96.2755 24.8246C96.2162 24.7998 96.1635 24.7616 96.1213 24.7132C96.0468 24.6255 96.0059 24.5141 96.0059 24.399C96.0059 24.2839 96.0468 24.1726 96.1213 24.0849C96.1635 24.0364 96.2162 23.9982 96.2755 23.9734C96.3347 23.9485 96.3989 23.9376 96.463 23.9416H102.426C102.492 23.9368 102.558 23.9472 102.619 23.972C102.681 23.9969 102.735 24.0355 102.779 24.0849C102.856 24.1715 102.898 24.2833 102.898 24.399C102.898 24.5147 102.856 24.6265 102.779 24.7132C102.735 24.7625 102.681 24.8011 102.619 24.826C102.558 24.8508 102.492 24.8613 102.426 24.8564H100.023V32.3077C100.04 32.384 100.04 32.463 100.023 32.5392C99.993 32.604 99.9476 32.6607 99.8911 32.7046C99.8352 32.7488 99.7717 32.7824 99.7037 32.8038C99.606 32.8386 99.5009 32.8478 99.3987 32.8304C99.2964 32.813 99.2003 32.7697 99.1195 32.7046C99.0606 32.6573 99.0139 32.5966 98.9832 32.5275C98.9525 32.4585 98.9388 32.3832 98.9431 32.3077V24.8564H96.463Z" fill="#1D1F21"/>
<path d="M28.3756 3.30691V26.8623C28.3756 27.2141 28.2366 27.5517 27.9888 27.8015C27.7411 28.0513 27.4047 28.1931 27.0528 28.196H26.9316C26.7308 28.2171 26.5278 28.1935 26.3372 28.1268C26.1466 28.0601 25.9732 27.952 25.8293 27.8102L18.2568 19.8409C18.0071 19.5908 17.8668 19.2518 17.8668 18.8984C17.8668 18.545 18.0071 18.2061 18.2568 17.956L25.7522 10.7362V1.73067C23.3427 0.581937 20.7056 -0.00954118 18.0363 0.000116388C13.7393 -0.00855882 9.58089 1.5203 6.3128 4.31034C3.0447 7.10039 0.882551 10.9675 0.217155 15.2128C-0.448242 19.458 0.42702 23.8012 2.68474 27.4574C4.94245 31.1135 8.43365 33.8414 12.5273 35.1479C16.6209 36.4543 21.0469 36.2532 25.0052 34.5809C28.9635 32.9086 32.1929 29.8754 34.1098 26.0296C36.0266 22.1837 36.5044 17.779 35.4568 13.6116C34.4092 9.44422 31.9052 5.78909 28.3976 3.30691H28.3756ZM19.7889 27.8102C19.5351 28.0613 19.1925 28.2021 18.8355 28.2021C18.4785 28.2021 18.1358 28.0613 17.882 27.8102L10.2654 19.8409C10.0157 19.5908 9.8754 19.2518 9.8754 18.8984C9.8754 18.545 10.0157 18.2061 10.2654 17.956L17.9812 10.5488C18.2313 10.2991 18.5703 10.1588 18.9237 10.1588C19.2771 10.1588 19.616 10.2991 19.8661 10.5488C20.1158 10.7988 20.2561 11.1378 20.2561 11.4912C20.2561 11.8446 20.1158 12.1836 19.8661 12.4336L13.1202 18.937L19.822 25.8923C20.0731 26.1461 20.2139 26.4887 20.2139 26.8457C20.2139 27.2028 20.0731 27.5454 19.822 27.7992" fill="#30B795"/>
<path d="M21.0449 18.9592L25.7185 23.7981V14.4509L21.0449 18.9592Z" fill="#30B795"/>
</svg>
